<?xml version="1.0" encoding="UTF-8"?>
<svg id="Capa_2" data-name="Capa 2" xmlns="http://www.w3.org/2000/svg" viewBox="0 0 150 142.7">
  <defs>
    <style>
      .cls-1 {
        fill: #2378e5;
      }
    </style>
  </defs>
  <g id="Capa_1-2" data-name="Capa 1">
    <path class="cls-1" d="M146.83,3.16c-1.95-1.87-4.63-2.94-7.39-3.15H10.7C4.91.35.43,4.55,0,10.05v122.6c.36,5.27,4.5,9.44,10,10.05h129.87c5.3-.39,9.62-4.5,10.14-9.51V9.64c-.17-2.27-1.5-4.88-3.17-6.49ZM65.5,42.89c.92.16.42-.37.58-.53.06-.06.39.07.42-.08.04-.18-.07-.82-.01-.87.05-.05.52.05.57,0,.05-.05-.05-.5,0-.54.05-.05.47.07.56-.01.11-.09-.22-.54.43-.39v8.36c-.66.15-.33-.3-.43-.39-.09-.08-.51.04-.56-.01-.06-.05.06-1.03,0-1.08-.06-.05-.46.07-.56-.02-.05-.05.03-.29-.04-.36-.07-.07-.33,0-.38-.04-.24-.21.43-1.35-.59-1.07v-2.97ZM39.42,32.91s.52.05.57,0c.05-.05-.05-.7-.01-.87.03-.15.36-.02.42-.08.09-.08-.04-.48.01-.53.05-.06.85.05,1.06.01.16-.03.03-.34.09-.4.1-.09.92.05.98-.01.13-.13-.35-.72.57-.54-.36,1.02,1.3.31,1.55.56.05.05-.04.29.04.36.08.07.33,0,.38.04.1.09-.03.48.02.53.05.05.52-.05.57,0,.05.05-.05.5,0,.54.05.05.52-.05.57,0,.06.06-.06,1.43,0,1.49.05.05.52-.05.57,0,.07.06-.06,1.17-.01,1.41.03.16.41-.01.44.15.13.64-.43,1.63.56,1.41v2.02s.57-.03.57,0v5.39c-.91-.18-.44.42-.57.54-.05.05-.52-.05-.57,0-.05.05.08.44-.02.53-.05.05-.3-.03-.38.04-.08.08.04.36-.11.39-.23.05-2.3.05-2.54,0-.16-.03-.03-.34-.09-.4-.1-.09-.92.05-.98-.01-.05-.05.05-.5,0-.54-.05-.05-.52.05-.57,0s.05-.5,0-.54c-.05-.05-.52.05-.57,0-.06-.06.08-.84-.02-.94-.06-.06-.39.07-.42-.08-.12-.58.39-1.17-.56-1.01v-1.89c-1.02.23-.39-.82-.56-1.41-.04-.15-.43-.05-.43-.07v-2.02s-.57.03-.57,0c0-.55-.16-3.91,0-4.05ZM16.45,49.91c1.02.28.35-.85.59-1.07.05-.04.3.03.38-.04.07-.07,0-.31.04-.36.09-.09.5.03.56-.02.05-.04-.05-.49,0-.54.17-.17,1.28.4.99-.54.31.05,2.05-.07,2.13,0,.05.05-.05.49,0,.54.05.05,1.08-.06,1.14,0,.05.05-.05.49,0,.54.06.06.89-.08.98.01.06.06-.08.37.09.4.18.03.86-.06.92-.01.05.05-.05.49,0,.54.05.05,1.08-.06,1.14,0,.05.05-.05.49,0,.54.06.06.89-.08.98.01.06.06-.07.37.09.4.18.03.86-.06.92-.01.05.05-.05.49,0,.54.05.05,1.09-.06,1.14,0,.05.05-.08.44.02.53.05.05.3-.03.38.04s0,.31.04.36c.09.09.5-.03.56.02.05.04-.05.49,0,.54.05.05.94-.05.99,0,.05.05-.05.5,0,.54.05.05.47-.07.56.01.05.05-.04.32.02.38.09.08.51-.04.56.01.05.05-.07.45.01.53.06.06.39-.07.42.08.06.28.06,2.54,0,2.82-.03.16-.41-.01-.44.15-.04.2.07.96.01,1.01-.06.05-.47-.07-.56.01-.05.05.04.32-.02.38-.09.08-.51-.04-.56.01-.05.05.07.45-.01.53-.05.05-.34-.03-.39.02-.08.07.01.53-.02.53h-2.13c.29-.94-.83-.37-.99-.54-.05-.05.05-.49,0-.54-.06-.06-.85.05-1.06.01-.16-.03-.03-.34-.09-.4-.1-.09-.92.05-.98-.01-.05-.05.05-.49,0-.54-.05-.05-.94.05-.99,0-.05-.05.05-.49,0-.54-.05-.05-1.08.06-1.14,0-.05-.05.05-.49,0-.54-.06-.06-.88.08-.98-.02-.05-.05.03-.32-.02-.37-.09-.08-.51.04-.56-.01-.05-.04.05-.49,0-.54-.05-.05-.94.05-.99,0-.05-.05.05-.49,0-.54-.06-.06-.85.05-1.06.01-.16-.03-.03-.34-.09-.4-.1-.09-.92.05-.98-.01-.05-.05.05-.5,0-.54-.05-.05-.52.05-.57,0-.05-.05.07-.45-.01-.53-.05-.05-.34.03-.39-.02-.22-.21.42-1.19-.59-.93v-2.43ZM24.24,79.56c-.11.1-.92-.05-.98.02-.05.05.05.49,0,.54-.06.06-1.5-.06-1.56,0-.05.05.05.49,0,.54-.09.09-1.74-.09-2.05-.01-.16.04-.05.41-.08.41h-2.41s.1.51-.08.54c-.15.03-1.15.04-1.19,0-.05-.05.05-.49,0-.54-.07-.07-1.23.06-1.48.01-.15-.03-.02-.31-.11-.39-.08-.07-.33,0-.38-.04-.1-.09.03-.48-.02-.53-.05-.05-.52.05-.57,0-.18-.16.43-1.22-.57-.94v-2.56c.99.27.39-.79.57-.94.05-.05.52.05.57,0,.05-.05-.08-.44.02-.53.05-.05.3.03.38-.04.08-.07,0-.31.04-.36.1-.1,1.06.05,1.12-.02.05-.05-.05-.49,0-.54.05-.05.94.05.99,0,.05-.05-.05-.49,0-.54.07-.07,1.23.08,1.48.01.16-.04.05-.41.08-.41h2.55s-.03-.54,0-.54h2.13s-.03-.54,0-.54c.42,0,3.01-.11,3.12,0,.05.05-.05.49,0,.54.06.06,1.5-.06,1.56,0,.05.05-.05.5,0,.54.05.05.52-.05.57,0,.18.16-.43,1.22.57.94v2.97c-.99-.27-.39.79-.57.94-.05.05-.52-.05-.57,0-.05.05.05.49,0,.54-.17.17-1.28-.41-.99.54h-2.13s.05.34,0,.39ZM39.98,95.08c-.13.02-.53-.04-.57,0-.06.06.06,1.43,0,1.48-.06.05-.46-.07-.56.02-.05.05.03.29-.04.36-.08.07-.33,0-.38.04-.1.09.03.48-.02.53-.05.05-.52-.05-.57,0s.05.5,0,.54c-.05.05-.46-.07-.56.02-.05.05.03.29-.04.36-.08.07-.33,0-.38.04-.1.09.03.48-.02.53-.05.05-.52-.05-.57,0s.05.5,0,.54c-.05.05-.46-.07-.56.02-.05.05.03.29-.04.36-.08.07-.33,0-.38.04-.1.09.03.48-.02.53-.05.05-.52-.05-.57,0-.05.05.05.5,0,.54-.05.05-.47-.07-.56.01-.05.05.04.32-.02.38-.09.08-.51-.04-.56.01-.05.05.07.45-.01.53-.05.05-.34-.03-.39.02-.09.09.04.48-.01.53-.05.05-.47-.07-.56.01-.06.06.07.37-.08.4-.18.03-.87-.06-.92-.01-.05.05.05.49,0,.54-.05.05-1.08-.06-1.14,0-.05.05.05.49,0,.54-.05.05-1.51.05-1.56,0-.05-.05.05-.49,0-.54-.05-.05-.94.05-.99,0-.05-.05.05-.5,0-.54-.05-.05-.46.07-.56-.02-.05-.05.03-.29-.04-.36-.08-.08-.38.04-.41-.1-.05-.24.08-1.35.01-1.41-.05-.05-.52.05-.57,0-.06-.05-.06-1.43,0-1.49.05-.05.52.05.57,0,.07-.06-.09-.97.02-1.07.05-.04.3.03.38-.04.07-.07,0-.31.04-.36.09-.09.5.03.56-.02.06-.05-.06-1.03,0-1.08.06-.05.46.07.56-.02.05-.05-.03-.29.04-.36.08-.07.33,0,.38-.04.1-.09-.03-.48.02-.53.05-.05.52.05.57,0,.05-.05-.05-.5,0-.54.05-.05.46.07.56-.02.05-.05-.03-.29.04-.36s.33,0,.38-.04c.1-.09-.03-.48.02-.53.05-.05.52.05.57,0,.05-.05-.06-.9,0-.95.05-.05.52.05.57,0,.05-.05-.07-.45.01-.53.05-.05.34.03.39-.02.09-.08-.04-.48.01-.53.05-.05.52.05.57,0,.05-.05-.05-.49,0-.54.05-.05.94.06.99,0,.06-.05-.06-.89,0-.95.19-.19,1.44.43,1.13-.54.42.08,3.01-.11,3.12,0,.05.05-.05.5,0,.54.05.05.52-.05.57,0,.05.05-.05.49,0,.54.05.05.94-.06.99,0,.18.17-.43,1.21.57.94v2.56ZM61.83,108.36c-.03.16-.41-.01-.44.15-.05.24.08,1.35.01,1.41-.05.05-.52-.05-.57,0-.05.05.05.5,0,.54-.05.05-.47-.07-.56.01-.05.05.03.32-.02.37-.22.21-1.25-.4-.98.56h-2.13c.27-.95-.77-.35-.98-.56-.05-.05.03-.32-.02-.37-.09-.08-.51.04-.56-.01-.05-.04.05-.5,0-.54-.05-.05-.52.05-.57,0-.06-.06.08-.84-.02-.94-.06-.06-.39.07-.42-.08-.13-.64.43-1.63-.56-1.41-.06-.29.08-1.95,0-2.02-.05-.04-.52.05-.57,0-.11-.1.1-2.46.01-2.89-.03-.16-.41.01-.44-.15-.07-.32-.07-3.04,0-3.36.03-.15.36-.03.42-.08.1-.09-.05-.88.02-.94.05-.05.52.05.57,0,.05-.05-.05-.5,0-.54.05-.05.52.05.57,0,.05-.05-.05-.49,0-.54.06-.06.89.08.98-.01.06-.06-.08-.37.09-.4.21-.04,1.76-.04,1.97,0,.16.03.03.34.09.4.1.09.92-.05.98.01.05.05-.05.5,0,.54.05.05.52-.05.57,0,.05.05-.05.5,0,.54.05.05.52-.05.57,0,.07.06-.08.83.02.94.05.05.41-.01.41,0v2.02s.57-.03.57,0v2.97c.13.02.53-.04.57,0,.11.1-.1,2.46-.01,2.89.03.16.41-.01.44.15.03.17.03,1.17,0,1.34ZM68.62,83.62v2.02c-1-.25-.36.73-.58.94-.06.06-.39-.07-.42.08-.04.18.06.82.01.87-.05.05-.52-.05-.57,0-.05.05.05.5,0,.54-.05.05-.52-.05-.57,0-.05.05.08.44-.02.53-.05.05-.3-.03-.38.04-.08.07,0,.31-.04.36-.09.09-.5-.03-.56.02-.05.04.05.5,0,.54-.05.05-.52-.05-.57,0-.05.05.05.49,0,.54-.06.06-.88-.08-.98.02-.05.05.03.32-.02.37-.09.08-.51-.04-.56.01-.05.04.05.49,0,.54-.05.05-.94-.05-.99,0-.05.05.05.49,0,.54-.06.06-.87-.08-.98.02-.06.05.01.39,0,.39h-2.13s.03.54,0,.54h-4.68s.1.51-.08.54c-.6.11-1.27.13-1.05-.54h-3.12s.03-.54,0-.54h-1.98s.09-.37-.08-.41c-.2-.05-1,.07-1.06.01-.05-.05.05-.49,0-.54-.06-.06-1.5.06-1.56,0-.05-.05.05-.49,0-.54-.06-.06-.89.08-.98-.01-.06-.06.08-.37-.09-.4-.21-.04-1,.07-1.06.01-.05-.05.05-.49,0-.54-.05-.05-.94.05-.99,0-.05-.05.05-.5,0-.54-.05-.05-.46.07-.56-.02-.05-.05.03-.29-.04-.36-.08-.07-.33,0-.38-.04-.1-.09.03-.48-.02-.53-.05-.05-.52.05-.57,0-.05-.05.05-.49,0-.54-.06-.06-.88.08-.98-.02-.05-.05.03-.32-.02-.37-.09-.08-.51.04-.56-.01-.05-.04.05-.5,0-.54-.05-.05-.52.05-.57,0-.05-.05.08-.44-.02-.53-.05-.05-.3.03-.38-.04-.08-.07,0-.31-.04-.36-.09-.09-.5.03-.56-.02-.05-.04.05-.5,0-.54-.05-.05-.52.05-.57,0-.05-.05.07-.45-.01-.53-.06-.06-.39.07-.42-.08-.04-.18.07-.82.01-.87-.05-.05-.52.05-.57,0-.05-.05.05-.5,0-.54-.05-.05-.52.05-.57,0-.06-.06.08-.84-.02-.94-.05-.05-.34.03-.39-.02-.09-.08.04-.48-.01-.53-.05-.05-.52.05-.57,0-.05-.05.06-.9,0-.95-.05-.05-.52.05-.57,0-.06-.05.06-1.03,0-1.08-.05-.05-.52.05-.57,0-.06-.06.08-.84-.01-.94-.06-.06-.39.07-.42-.08-.04-.18.07-.82.01-.87-.05-.05-.52.05-.57,0-.06-.06.06-1.43,0-1.49-.05-.05-.52.05-.57,0-.1-.09.09-2.11.01-2.49-.03-.16-.41.01-.44-.15v-6.33c.03-.16.41.01.44-.15.07-.36-.1-2.27-.01-2.35.05-.05.52.05.57,0,.05-.05-.06-.9,0-.95.05-.05.52.05.57,0,.07-.06-.06-1.17-.01-1.41.03-.16.41.01.44-.15.04-.2-.07-.95-.01-1.01.05-.05.52.05.57,0,.05-.05-.06-.9,0-.95.05-.05.52.05.57,0,.05-.05-.06-.9,0-.95.05-.05.52.05.57,0,.05-.05-.07-.45.01-.53.06-.06.39.07.42-.08.04-.18-.07-.82-.01-.87.05-.05.52.05.57,0,.05-.05-.05-.5,0-.54.05-.05.52.05.57,0,.05-.05-.07-.45.01-.53.05-.05.34.03.39-.02.09-.08-.04-.48.01-.53.05-.05.52.05.57,0,.05-.05-.06-.9,0-.95.05-.05.52.05.57,0,.05-.05-.08-.44.02-.53.05-.05.3.03.38-.04.08-.07,0-.31.04-.36.09-.09.5.03.56-.02.05-.04-.05-.49,0-.54.05-.05.94.05.99,0,.05-.05-.05-.5,0-.54.05-.05.47.07.56-.01.05-.05-.04-.32.02-.38.09-.08.51.04.56-.01.05-.05-.07-.45.01-.53.05-.05.34.03.39-.02.09-.09-.04-.48.02-.53.05-.06.85.05,1.06.01.16-.03.03-.34.09-.4.1-.09.92.05.98-.01.05-.05-.05-.49,0-.54.05-.05.94.05.99,0,.05-.05-.05-.49,0-.54.05-.06.85.05,1.06.01.17-.03-.02-.39.16-.42.67-.13,1.72.41,1.48-.53.31-.05,2.05.07,2.13,0,.05-.05-.05-.49,0-.54.14-.14,3.45.12,4.03.01.17-.03-.02-.39.16-.42.18-.03,1.23-.03,1.4,0,.17.03-.02.39.16.42.46.08,2.94-.11,3.04-.01.04.04-.03.41,0,.54h2.13c-.27.96.77.35.98.55.06.06-.08.37.09.4.21.04,1-.07,1.06-.01.05.05-.05.49,0,.54.05.05.94-.05.99,0,.05.05-.05.49,0,.54.06.06.88-.08.98.02.05.05-.04.32.02.37.09.08.51-.04.56.01.05.04-.05.49,0,.54.05.05.94-.05.99,0,.05.05-.05.5,0,.54.05.05.47-.07.56.01.05.05-.04.32.02.38.09.08.51-.04.56.01.05.05-.07.44.01.53.05.06.41-.01.41,0v26.97s.54-.09.57.08c.11.58.11,1.03-.57.87v1.89s.57-.03.57,0ZM79.11,131.23s-.52-.05-.57,0c-.06.05.06,1.03,0,1.08-.06.05-.46-.07-.56.02-.05.05.03.29-.04.36-.08.07-.33,0-.38.04-.1.09.03.47-.02.53-.14.15-3.69-.12-4.25,0-.04-.2.07-.85-.02-.94-.05-.05-.34.03-.39-.02-.17-.16.34-.59-.58-.61V12.68c.92.16.42-.37.59-.53.05-.05.34.03.39-.02.09-.09-.04-.48.01-.53.05-.05.47.07.56-.01.06-.06-.07-.37.08-.4.25-.05,2.15-.05,2.4,0,.17.03-.02.39.16.42.21.04,1.01-.07,1.06-.01.05.05-.07.45.02.53.05.05.34-.03.39.02.09.08-.04.48.01.53.05.05.52-.05.57,0,.06.06-.06,1.43,0,1.49.04.04.44-.02.57,0v117.06ZM136.96,73.57l-.44.15c-.13.62.2,4.75.01,4.92-.04.04-.44-.02-.57,0v2.43s-.57-.03-.57,0v2.02s-.39-.08-.43.07c-.17.59.46,1.64-.56,1.41v2.02c-.99-.27-.39.79-.57.94-.05.05-.52-.05-.57,0-.07.06.06,1.17.01,1.41-.03.16-.41-.01-.44.15-.04.2.07.95.01,1.01-.05.05-.52-.05-.57,0-.05.05.06.9,0,.95-.05.05-.52-.05-.57,0-.06.06.08.84-.02.94-.06.06-.39-.07-.42.08-.04.2.07.95.01,1.01-.05.05-.52-.05-.57,0-.05.05.06.9,0,.95-.05.05-.52-.05-.57,0-.05.05.07.45-.01.53-.06.06-.39-.07-.42.08-.04.18.07.82.01.87-.05.05-.52-.05-.57,0-.05.05.05.5,0,.54-.05.05-.52-.05-.57,0-.05.05.05.7.01.87-.03.15-.36.02-.42.08-.09.08.04.48-.01.53-.05.05-.52-.05-.57,0-.05.05.05.5,0,.54-.05.05-.52-.05-.57,0-.05.05.05.7.01.87-.03.15-.36.02-.42.08-.09.08.04.48-.01.53-.05.05-.47-.07-.56.01-.05.05.04.32-.02.38-.09.08-.51-.04-.56.01-.05.05.07.45-.01.53-.05.05-.34-.03-.39.02-.09.09.04.48-.01.53-.05.05-.47-.07-.56.01-.05.05.04.32-.02.38-.09.08-.51-.04-.56.01-.05.05.07.45-.01.53-.05.05-.34-.03-.39.02-.09.09.04.48-.01.53-.05.05-.47-.07-.56.01-.05.05.04.32-.02.38-.09.08-.51-.03-.56.01-.05.04.05.5,0,.54-.05.05-.52-.05-.57,0-.05.05.08.44-.02.53-.05.05-.3-.03-.38.04-.08.07,0,.31-.04.36-.09.09-.5-.03-.56.02-.05.04.05.49,0,.54-.05.05-.94-.05-.99,0-.05.05.05.5,0,.54-.05.05-.52-.05-.57,0-.05.05.05.5,0,.54-.05.05-.47-.07-.56.01-.06.06.07.37-.08.4-.18.03-.87-.06-.92-.01-.05.05.05.5,0,.54-.05.05-.52-.05-.57,0-.05.05.08.44-.02.53-.05.05-.3-.03-.38.04-.08.07,0,.31-.04.36-.1.1-1.06-.05-1.12.02-.05.05.05.49,0,.54-.05.05-.94-.05-.99,0-.05.05.05.49,0,.54-.06.06-.89-.08-.98.01-.06.06.08.37-.09.4-.21.04-1-.07-1.06-.01-.05.05.05.49,0,.54-.05.05-.94-.05-.99,0-.05.05.05.49,0,.54-.06.06-.87-.08-.98.02-.06.05.01.39,0,.39h-2.13c-.02.13.04.5,0,.54-.06.06-1.5-.06-1.56,0-.05.05.05.49,0,.54-.07.07-1.23-.08-1.48-.01-.16.04-.05.41-.08.41h-2.69s.03.54,0,.54h-3.12s.03.54,0,.54h-7.8s.03-.54,0-.54h-3.12s.03-.54,0-.54h-2.13s.09-.37-.08-.41c-.25-.07-1.41.08-1.48.01-.05-.05.05-.5,0-.54-.05-.05-.52.05-.57,0-.05-.05.07-.45-.01-.53-.05-.05-.34.03-.39-.02-.09-.08-.07-2.14-.03-2.34.03-.15.36-.02.42-.08.09-.08-.04-.48.01-.53.05-.05.47.07.56-.01.06-.06-.07-.37.08-.4.25-.05,1.42.08,1.48.01.05-.05-.05-.49,0-.54.05-.05,1.08.06,1.14,0,.05-.05-.05-.49,0-.54.06-.06.89.08.98-.01.06-.06-.08-.37.09-.4.25-.05,1.42.07,1.48.01.05-.05-.05-.49,0-.54.05-.05.94.05.99,0,.05-.05-.05-.49,0-.54.05-.05,1.09.06,1.14,0,.05-.05-.08-.44.02-.53.05-.05.3.03.38-.04.08-.07,0-.31.04-.36.1-.1,1.06.05,1.12-.02.05-.05-.05-.49,0-.54.05-.05.94.05.99,0,.05-.05-.05-.49,0-.54.06-.06.88.08.98-.02.05-.05-.03-.32.02-.37.09-.08.51.04.56-.01.05-.04-.05-.5,0-.54.05-.05.52.05.57,0,.05-.05-.05-.49,0-.54.06-.06.88.08.98-.02.05-.05-.03-.32.02-.37.09-.08.51.04.56-.01.05-.04-.05-.49,0-.54.05-.05.94.05.99,0,.05-.05-.05-.5,0-.54.05-.05.47.07.56-.01.05-.05-.04-.32.02-.38.09-.08.51.04.56-.01.05-.05-.07-.45.01-.53.05-.05.34.03.39-.02.09-.09-.04-.48.01-.53.05-.05.47.07.56-.01.05-.05-.04-.32.02-.38.09-.08.51.04.56-.01.05-.05-.07-.45.01-.53.05-.05.34.03.39-.02.09-.09-.04-.48.01-.53.05-.05.47.07.56-.01.05-.05-.04-.32.02-.38.09-.08.51.04.56-.01.05-.05-.07-.45.01-.53.05-.05.34.03.39-.02.09-.09-.04-.48.01-.53.05-.05.47.07.56-.01.05-.05-.04-.32.02-.38.09-.08.51.04.56-.01.05-.05-.07-.45.01-.53.05-.05.34.03.39-.02.09-.08-.04-.48.01-.53.05-.05.52.05.57,0,.05-.05-.06-.9,0-.95.05-.05.52.05.57,0,.05-.05-.07-.45.01-.53.05-.05.34.03.39-.02.1-.09-.05-.88.02-.94.05-.05.52.05.57,0,.05-.05-.05-.5,0-.54.05-.05.52.05.57,0,.05-.05-.05-.7-.01-.87.03-.15.36-.02.42-.08.09-.08-.04-.48.01-.53.05-.05.52.05.57,0,.05-.05-.06-.9,0-.95.05-.05.52.05.57,0,.06-.05-.06-1.03,0-1.08.06-.05.46.07.56-.02.05-.05-.03-.29.04-.36.08-.07.33,0,.38-.04.11-.1-.05-1.01.02-1.07.05-.05.52.05.57,0,.06-.06-.06-1.43,0-1.49.05-.05.52.05.57,0,.06-.06-.08-.84.02-.94.06-.06.39.07.42-.08.05-.24-.08-1.35-.01-1.41.05-.05.52.05.57,0,.06-.06-.06-1.43,0-1.49.05-.05.52.05.57,0,.08-.07-.08-1.17-.01-1.41.04-.15.43-.05.43-.07v-2.02s.57.03.57,0v-2.97s.57.03.57,0v-11.87s-.57.03-.57,0v-2.02s-.57.03-.57,0v-2.02s-.43.02-.43,0c0-.29.08-1.95,0-2.02-.05-.04-.52.05-.57,0-.06-.06.06-1.43,0-1.49-.05-.05-.52.05-.57,0-.06-.06.08-.84-.01-.94-.06-.06-.39.07-.42-.08-.05-.24.08-1.35.01-1.41-.05-.05-.52.05-.57,0-.05-.05.06-.9,0-.95-.05-.05-.52.05-.57,0-.06-.05.05-.81.01-1.01-.03-.15-.36-.03-.42-.08-.1-.09.05-.88-.02-.94-.05-.05-.52.05-.57,0-.05-.05.06-.9,0-.95-.05-.05-.52.05-.57,0-.05-.05.05-.5,0-.54-.05-.05-.52.05-.57,0-.05-.05.05-.7.01-.87-.03-.15-.36-.02-.42-.08-.09-.08.04-.48-.01-.53-.05-.05-.52.05-.57,0-.05-.05.06-.9,0-.95-.05-.05-.52.05-.57,0-.05-.05.07-.45-.01-.53-.06-.06-.39.07-.42-.08-.04-.2.07-.96.01-1.01-.06-.05-.47.07-.56-.01-.05-.05.04-.32-.02-.38-.09-.08-.51.04-.56-.01-.05-.05.07-.45-.01-.53-.05-.05-.34.03-.39-.02-.09-.09.04-.48-.01-.53-.05-.05-.47.07-.56-.01-.05-.05.04-.32-.02-.38-.09-.09-.5.03-.56-.01-.06-.05.06-.81.01-1.01-.03-.14-.33-.02-.41-.1-.07-.07,0-.31-.04-.36-.09-.09-.5.03-.56-.02-.05-.04.05-.49,0-.54-.05-.05-.94.05-.99,0-.05-.05.05-.5,0-.54-.05-.05-.47.07-.56-.01-.05-.05.04-.32-.02-.38-.09-.08-.51.04-.56-.01-.05-.05.07-.45-.01-.53-.05-.05-.34.03-.39-.02-.09-.09.04-.48-.01-.53-.05-.05-.47.07-.56-.01-.06-.06.07-.37-.08-.4-.18-.03-.87.06-.92.01-.05-.05.05-.5,0-.54-.05-.05-.52.05-.57,0-.05-.05.05-.49,0-.54-.05-.05-.73.05-.92.01-.16-.03-.02-.34-.08-.4-.09-.08-.51.04-.56-.01-.05-.04.05-.49,0-.54-.05-.05-1.08.06-1.14,0-.05-.05.05-.49,0-.54-.06-.06-.89.08-.98-.01-.05-.05.03-.32-.02-.37-.1-.09-.92.05-.98-.01-.05-.05.05-.5,0-.54-.05-.05-.52.05-.57,0-.02-.02-.02-.52,0-.54.06-.06,1.5.06,1.56,0,.05-.05-.05-.49,0-.54.15-.15,1.11.34,1.07-.41h9.34c.17.03-.02.39.16.42.38.07,2.39-.1,2.47-.01.05.05-.05.49,0,.54.06.06,1.5-.06,1.56,0,.05.05-.05.49,0,.54.06.06,1.5-.06,1.56,0,.05.05-.05.49,0,.54.05.06.85-.05,1.06-.01.17.03-.02.39.16.42.25.05,1.42-.07,1.48-.01.05.05-.05.49,0,.54.05.05.94-.05.99,0,.05.05-.05.49,0,.54.06.06.89-.08.98.01.06.06-.08.37.09.4.21.04,1-.07,1.06-.01.05.05-.07.45.02.53.05.05.34-.03.39.02.09.09-.04.48.02.53.06.07,1.02-.08,1.12.02.05.05-.04.29.04.36.08.07.33,0,.38.04.1.09-.03.47.02.53.05.05,1.09-.06,1.14,0,.05.05-.08.44.02.53.05.05.3-.03.38.04.08.07,0,.31.04.36.09.09.5-.03.56.02.05.04-.05.49,0,.54.05.05.94-.05.99,0,.05.05-.05.5,0,.54.05.05.47-.07.56.01.05.05-.04.32.02.38.09.08.51-.03.56.01.05.04-.05.5,0,.54.05.05.52-.05.57,0,.05.05-.08.44.02.53.05.05.3-.03.38.04.08.07,0,.31.04.36.09.09.5-.03.56.02.05.04-.05.5,0,.54.05.05.52-.05.57,0,.05.05-.08.44.02.53.05.05.3-.03.38.04s0,.31.04.36c.09.09.5-.03.56.02.06.05-.06,1.03,0,1.08.05.05.52-.05.57,0,.05.05-.08.44.02.53.05.05.3-.03.38.04.08.07,0,.31.04.36.09.09.5-.03.56.02.05.04-.05.5,0,.54.05.05.52-.05.57,0,.05.05-.05.7-.01.87.03.15.36.02.42.08.09.08-.04.48.01.53.05.05.52-.05.57,0,.05.05-.05.5,0,.54.05.05.52-.05.57,0,.06.06-.08.84.02.94.05.05.34-.03.39.02.09.08-.04.48.01.53.05.05.52-.05.57,0,.05.05-.06.9,0,.95.05.05.52-.05.57,0,.06.06-.08.84.02.94.05.05.34-.03.39.02.09.08-.04.48.01.53.05.05.52-.05.57,0,.05.05-.06.9,0,.95.05.05.52-.05.57,0,.06.05-.05.8-.01,1.01.03.16.41-.01.44.15.05.24-.08,1.35-.01,1.41.05.05.52-.05.57,0,.05.05-.06.9,0,.95.05.05.52-.05.57,0,.06.06-.06,1.43,0,1.49.04.04.44-.02.57,0v2.02s.39-.08.43.07c.17.59-.46,1.64.56,1.41v2.43c.13.02.53-.04.57,0,.15.14-.13,3.4-.01,3.97.03.16.41-.01.44.15v5.25Z"/>
  </g>
</svg>